<?xml version="1.0" encoding="utf-8"?>
<!-- Generator: Adobe Illustrator 21.0.0, SVG Export Plug-In . SVG Version: 6.00 Build 0)  -->
<svg version="1.1" id="Layer_1" xmlns="http://www.w3.org/2000/svg" xmlns:xlink="http://www.w3.org/1999/xlink" x="0px" y="0px"
	 viewBox="0 0 1366 768" style="enable-background:new 0 0 1366 768;" xml:space="preserve">
<style type="text/css">
	.st0{fill:#3F3D56;}
	.st1{fill:#FFFFFF;}
	.st2{fill:#E6E6E6;}
	.st3{fill:#05808B;}
	.st4{fill:#FCDABF;}
	.st5{fill:#2F2E41;}
</style>
<g id="Group_6" transform="translate(-231.222 -125)">
	<path id="Path_80" class="st0" d="M1381.9,185.4h-240.6c-23.9,0-44.6,16.6-49.9,39.9L969.9,764.6c-5,22.3,9,44.4,31.2,49.4
		c2.3,0.5,4.7,0.8,7.1,1l247.4,12.2c27.4,1.3,51.5-17.8,56.4-44.8l69-381.3l5.1,1.5l13.2-72.3l-5.3-1.3l19.3-106.4
		c3.1-17.1-8.3-33.5-25.4-36.6C1385.9,185.5,1383.9,185.4,1381.9,185.4L1381.9,185.4z"/>
	<path id="Path_81" class="st1" d="M1173,197h-28.1c-16.6,0-31,11.6-34.5,27.8L993.7,759.7c-2.6,11.8,4.9,23.5,16.7,26.1
		c1.1,0.2,2.2,0.4,3.2,0.5l246.6,16.1c14.4,0.9,27.2-9.1,29.8-23.3l99.6-552.8c2.4-13.5-6.5-26.4-20-28.9c-1.5-0.3-2.9-0.4-4.4-0.4
		h-26.6c-5.3,0-9.9,3.6-11.3,8.7l0,0c-1.2,4.5-5.3,7.7-10,7.7h-126.7C1181.4,213.4,1173.7,206.2,1173,197z"/>
	<path id="Path_93" class="st2" d="M1309.3,570.9c1,0,1.9-0.7,2-1.6l54.6-300.9c0.1-0.6,0-1.2-0.4-1.6c-0.4-0.5-0.9-0.7-1.5-0.7
		l-248.1-3l0,0c-0.9,0-1.7,0.7-1.9,1.6l-64.3,291.1c-0.1,0.6,0,1.2,0.4,1.6c0.3,0.5,0.9,0.8,1.5,0.8L1309.3,570.9z"/>
	<path id="Path_94" class="st2" d="M1094,590.4c-0.5,0-0.9,0.3-1,0.8l-2.3,10c-0.1,0.5,0.2,1.1,0.7,1.2c0.1,0,0.1,0,0.2,0l131.2,9.3
		c0.5,0,1-0.3,1.1-0.8l2.2-11.5c0.1-0.5-0.2-1.1-0.8-1.2h-0.1L1094,590.4L1094,590.4z"/>
	<path id="Path_95" class="st2" d="M1253.5,648.7c0.5,0,0.9-0.3,1.1-0.8l2.8-11.5c0.1-0.5-0.2-1.1-0.7-1.2c-0.1,0-0.1,0-0.2,0
		l-167.6-11.8c-0.5,0-0.9,0.3-1,0.7l-3,10c-0.2,0.5,0.1,1.1,0.7,1.2c0.1,0,0.1,0,0.2,0L1253.5,648.7z"/>
	<path id="Path_96" class="st2" d="M1244.5,685.7c0.5,0,0.9-0.3,1.1-0.8l2.8-11.5c0.1-0.5-0.2-1.1-0.7-1.2c-0.1,0-0.1,0-0.2,0
		l-167.6-11.8c-0.5,0-0.9,0.3-1,0.7l-3,10c-0.2,0.5,0.1,1.1,0.7,1.2c0.1,0,0.1,0,0.2,0L1244.5,685.7z"/>
	<path id="Path_79" class="st2" d="M953.9,815.9c0,8.4-76.6,9.3-170.9,15.2c-94.2,5.9-170.9-6.8-170.9-15.2s77-25.2,170.9-15.2
		C877.3,810.9,953.9,807.6,953.9,815.9z"/>
	<path id="Path_97" class="st3" d="M1167.3,748.9c0.5,0.1,0.9-0.3,1.1-0.8l6-24.1c0.1-0.5-0.2-1.1-0.7-1.2c-0.1,0-0.1,0-0.2,0
		l-102.9-8.7c-0.5,0-0.9,0.3-1.1,0.8l-5.1,23.1c-0.1,0.5,0.2,1.1,0.8,1.2h0.1L1167.3,748.9z"/>
	<path id="Path_111" class="st4" d="M751.7,650.9c4.9-3.4,6.1-10,2.8-14.9c-0.4-0.5-0.8-1-1.2-1.5l4.2-93l-21.2,2.4l1.2,91
		c-4,4.5-3.6,11.3,0.9,15.2C742.1,653.4,747.6,653.8,751.7,650.9L751.7,650.9z"/>
	<path id="Path_112" class="st4" d="M790.4,808.4l12.1,2.1l11.9-45.6l-15.8-3.1L790.4,808.4z"/>
	<path id="Path_113" class="st5" d="M823.8,825.8l-37.9-6.7l2.6-14.7l23.3,4.1C819.8,810,825.3,817.7,823.8,825.8L823.8,825.8
		L823.8,825.8z"/>
	<path id="Path_114" class="st4" d="M757.3,814.4h12.3l5.8-47.3h-18.1V814.4z"/>
	<path id="Path_115" class="st5" d="M793.2,825.8h-38.5v-14.9h23.6C786.5,810.9,793.2,817.6,793.2,825.8L793.2,825.8L793.2,825.8
		L793.2,825.8z"/>
	<path id="Path_116" class="st5" d="M808.4,797.5c-0.2,0-0.4,0-0.6,0l-14.4-1.2c-2.7-0.3-4.6-2.7-4.3-5.4c0-0.1,0-0.2,0-0.2
		l14.3-70.7l-9-47.5c-0.2-0.9-1-1.5-1.9-1.3c-0.7,0.1-1.3,0.7-1.3,1.5l-13.3,120.6c-0.3,2.6-2.6,4.6-5.2,4.4l-13.6-0.5
		c-2.5-0.2-4.4-2.2-4.5-4.6l1.1-145.8l70.5-8.8l4.9,76v0.1l-18,79.7C812.6,795.9,810.7,797.5,808.4,797.5z"/>
	<circle id="Ellipse_16" class="st4" cx="779" cy="456.7" r="24.6"/>
	<path id="Path_117" class="st3" d="M802.2,657.8c-3.8,0-7.6-1.1-10.9-3.1c-11.9-7.4-25.4-4.5-32.4-2.1c-1.4,0.5-3,0.3-4.2-0.5
		s-2.1-2.1-2.2-3.6l-12.7-113.6c-2.1-19,9.3-36.9,27.3-42.6l0,0c0.7-0.2,1.4-0.4,2.1-0.6c11.3-3.1,23.4-1,33,5.7
		c9.8,6.8,16.1,17.5,17.2,29.4l10.5,114.5c0.1,1.5-0.4,3-1.5,4C824.6,648.8,813.7,657.8,802.2,657.8z"/>
	<path id="Path_118" class="st3" d="M763.4,559.4l-28.7-3.2c-3.1-0.3-5.4-3.2-5.1-6.3c0-0.3,0.1-0.6,0.2-0.8l7.3-27.8
		c0.9-8.7,8.7-15.1,17.4-14.2s15.1,8.7,14.2,17.4c0,0.1,0,0.2,0,0.3l1.1,28.7c0.1,3.2-2.3,5.8-5.5,5.9
		C764,559.4,763.7,559.4,763.4,559.4L763.4,559.4z"/>
	<path id="Path_119" class="st4" d="M829.8,646.9c4.5-3.9,4.9-10.7,1-15.2c-0.4-0.5-0.9-0.9-1.4-1.3l-7.1-92.8l-20.8,4.7l12.2,90.4
		c-3.4,4.9-2.2,11.6,2.7,15C820.5,650.6,826.1,650.3,829.8,646.9L829.8,646.9z"/>
	<path id="Path_120" class="st3" d="M793.6,553.5c-1.2-1.1-1.9-2.7-1.8-4.4l1.1-28.7c-1-8.7,5.3-16.6,14-17.6s16.6,5.3,17.6,14
		l7.3,27.8c0.8,3.1-1,6.2-4.1,7c-0.3,0.1-0.5,0.1-0.8,0.2l-28.7,3.2C796.4,555.2,794.8,554.7,793.6,553.5L793.6,553.5z"/>
	<path id="Path_121" class="st5" d="M777.6,482.1c-0.4,0-0.9-0.1-1.3-0.2h-0.1c-21.6-3.3-26.4-15.8-27.4-21
		c-1.1-5.4,0.1-10.6,2.9-12.7c-1.5-4.8-1.3-9.1,0.7-12.7c3.5-6.3,11.1-8.4,12.1-8.7c6.1-4.5,13.3-1.5,14.6-0.9
		c11.7-4.3,16.2-0.7,17,0.1c5.2,0.9,8.4,3,9.5,6c2,5.7-4.3,12.9-4.6,13.2l-0.1,0.2l-9.4,0.4c-3.5,0.2-6.2,3.1-6,6.7
		c0,0.2,0,0.4,0.1,0.7l0,0c0.3,1.1,0.6,2.3,1,3.4c1.6,5,2.8,9.3,1.3,10.9c-0.7,0.6-1.7,0.8-2.6,0.5c-1.5-0.4-2.5-0.3-3,0.2
		c-0.8,0.9-0.5,3,0.7,6.1c0.8,2,0.4,4.2-1,5.8C780.7,481.4,779.2,482.1,777.6,482.1L777.6,482.1z"/>
</g>
</svg>
